# Alias OBJ Model File
# Exported from SketchUp, (c) 2000-2012 Trimble Navigation Limited
# File units = inches

mtllib R29O.mtl

g Mesh1 Model

usemtl FrontColor
v 29 0 -29
vt -29 29
vn 0 -1 -0
v 29 0 -0
vt -29 0
v 0 0 -0
vt 0 0
v 0 0 -29
vt 0 29
f 1/1/1 2/2/1 3/3/1 4/4/1 

usemtl Cladding_Stucco_White
vn 1 0 -0
vt 1.61111 0
v 29 36 -29
vt 1.61111 1.33333
v 29 36 -0
vt 0 1.33333
f 2/3/2 1/5/2 5/6/2 6/7/2 

vt -1.61111 0
vn 0 0 -1
v 0 36 -29
vt -1.61111 1.33333
f 1/8/3 4/3/3 7/7/3 5/9/3 

vn -1 0 -0
v 0 36 -0
f 4/8/4 3/3/4 8/7/4 7/9/4 

vn 0 0 1
f 3/3/5 2/5/5 6/6/5 8/7/5 

vn 0 1 -0
vt 1.61111 1.07407
vt 0 1.07407
f 6/5/6 5/10/6 7/11/6 8/3/6 

