# Alias OBJ Model File
# Exported from SketchUp, (c) 2000-2012 Trimble Navigation Limited
# File units = inches

mtllib R48O.mtl

g Mesh1 Model

usemtl Cladding_Stucco_White
v 48 0 -29
vt -2.66667 0
vn 0 0 -1
v 0 0 -29
vt 0 0
v 0 36 -29
vt 0 1.33333
v 48 36 -29
vt -2.66667 1.33333
f 1/1/1 2/2/1 3/3/1 4/4/1 

usemtl FrontColor
v 48 0 -0
vt -48 0
vn 0 -1 -0
v 0 0 -0
vt 0 29
vt -48 29
f 5/5/2 6/2/2 2/6/2 1/7/2 

usemtl Cladding_Stucco_White
v 48 36 -0
vt 2.66667 1.33333
vn 0 0 1
v 0 36 -0
vt 2.66667 0
f 7/8/3 8/3/3 6/2/3 5/9/3 

vn 0 1 -0
vt 2.66667 1.07407
vt 0 1.07407
f 8/2/4 7/9/4 4/10/4 3/11/4 

vn 1 0 -0
vt 1.61111 0
vt 1.61111 1.33333
f 5/2/5 1/12/5 4/13/5 7/3/5 

vt -1.61111 0
vn -1 0 -0
vt -1.61111 1.33333
f 2/14/6 6/2/6 8/3/6 3/15/6 

